<svg width="21" height="21" viewBox="0 0 21 21" fill="none" xmlns="http://www.w3.org/2000/svg">
<path d="M20.0756 4.01906C20.0052 3.93481 19.9172 3.86705 19.8177 3.82056C19.7183 3.77407 19.6098 3.74998 19.5 3.75H4.37625L3.91781 1.23187C3.85502 0.886252 3.67292 0.573628 3.40325 0.348508C3.13359 0.123388 2.79347 5.07697e-05 2.44219 0H0.75C0.551088 0 0.360322 0.0790176 0.21967 0.21967C0.0790176 0.360322 0 0.551088 0 0.75C0 0.948912 0.0790176 1.13968 0.21967 1.28033C0.360322 1.42098 0.551088 1.5 0.75 1.5H2.4375L4.83375 14.6522C4.90434 15.0422 5.07671 15.4067 5.33344 15.7087C4.97911 16.0397 4.72336 16.4623 4.59455 16.9298C4.46575 17.3972 4.46892 17.8912 4.60371 18.3569C4.73851 18.8226 4.99966 19.2419 5.35821 19.5683C5.71676 19.8947 6.1587 20.1154 6.63502 20.2059C7.11134 20.2965 7.60344 20.2533 8.05673 20.0813C8.51003 19.9092 8.90682 19.615 9.2031 19.2312C9.49938 18.8474 9.68358 18.389 9.73527 17.907C9.78696 17.4249 9.70412 16.9379 9.49594 16.5H13.7541C13.5863 16.8513 13.4995 17.2357 13.5 17.625C13.5 18.1442 13.654 18.6517 13.9424 19.0834C14.2308 19.5151 14.6408 19.8515 15.1205 20.0502C15.6001 20.2489 16.1279 20.3008 16.6371 20.1996C17.1463 20.0983 17.614 19.8483 17.9812 19.4812C18.3483 19.114 18.5983 18.6463 18.6996 18.1371C18.8008 17.6279 18.7489 17.1001 18.5502 16.6205C18.3515 16.1408 18.0151 15.7308 17.5834 15.4424C17.1517 15.154 16.6442 15 16.125 15H7.04719C6.87155 15 6.70149 14.9383 6.56665 14.8257C6.43182 14.7132 6.34077 14.5569 6.30938 14.3841L6.01219 12.75H16.8872C17.4141 12.7499 17.9243 12.5649 18.3288 12.2272C18.7333 11.8896 19.0064 11.4206 19.1006 10.9022L20.2406 4.63406C20.2599 4.52572 20.2551 4.41447 20.2266 4.30818C20.1981 4.2019 20.1466 4.10319 20.0756 4.01906ZM16.125 16.5C16.3475 16.5 16.565 16.566 16.75 16.6896C16.935 16.8132 17.0792 16.9889 17.1644 17.1945C17.2495 17.4 17.2718 17.6262 17.2284 17.8445C17.185 18.0627 17.0778 18.2632 16.9205 18.4205C16.7632 18.5778 16.5627 18.685 16.3445 18.7284C16.1262 18.7718 15.9 18.7495 15.6945 18.6644C15.4889 18.5792 15.3132 18.435 15.1896 18.25C15.066 18.065 15 17.8475 15 17.625C15 17.3266 15.1185 17.0405 15.3295 16.8295C15.5405 16.6185 15.8266 16.5 16.125 16.5ZM7.125 16.5C7.3475 16.5 7.56501 16.566 7.75002 16.6896C7.93502 16.8132 8.07922 16.9889 8.16436 17.1945C8.24951 17.4 8.27179 17.6262 8.22838 17.8445C8.18498 18.0627 8.07783 18.2632 7.9205 18.4205C7.76316 18.5778 7.56271 18.685 7.34448 18.7284C7.12625 18.7718 6.90005 18.7495 6.69448 18.6644C6.48891 18.5792 6.31321 18.435 6.1896 18.25C6.06598 18.065 6 17.8475 6 17.625C6 17.3266 6.11853 17.0405 6.3295 16.8295C6.54048 16.6185 6.82663 16.5 7.125 16.5Z" fill="white"/>
</svg>
