<svg width="118" height="29" viewBox="0 0 118 29" fill="none" xmlns="http://www.w3.org/2000/svg">
<path d="M11.6591 9.90909C11.5568 9.04545 11.142 8.375 10.4148 7.89773C9.6875 7.42045 8.79545 7.18182 7.73864 7.18182C6.96591 7.18182 6.28977 7.30682 5.71023 7.55682C5.13636 7.80682 4.6875 8.15057 4.36364 8.58807C4.04545 9.02557 3.88636 9.52273 3.88636 10.0795C3.88636 10.5455 3.99716 10.946 4.21875 11.2812C4.44602 11.6108 4.7358 11.8864 5.08807 12.108C5.44034 12.3239 5.80966 12.5028 6.19602 12.6449C6.58239 12.7812 6.9375 12.892 7.26136 12.9773L9.03409 13.4545C9.48864 13.5739 9.99432 13.7386 10.5511 13.9489C11.1136 14.1591 11.6506 14.446 12.1619 14.8097C12.679 15.1676 13.1051 15.6278 13.4403 16.1903C13.7756 16.7528 13.9432 17.4432 13.9432 18.2614C13.9432 19.2045 13.696 20.0568 13.2017 20.8182C12.7131 21.5795 11.9972 22.1847 11.054 22.6335C10.1165 23.0824 8.97727 23.3068 7.63636 23.3068C6.38636 23.3068 5.30398 23.1051 4.3892 22.7017C3.48011 22.2983 2.7642 21.7358 2.24148 21.0142C1.72443 20.2926 1.43182 19.4545 1.36364 18.5H3.54545C3.60227 19.1591 3.82386 19.7045 4.21023 20.1364C4.60227 20.5625 5.09659 20.8807 5.69318 21.0909C6.29545 21.2955 6.94318 21.3977 7.63636 21.3977C8.44318 21.3977 9.16761 21.267 9.80966 21.0057C10.4517 20.7386 10.9602 20.3693 11.3352 19.8977C11.7102 19.4205 11.8977 18.8636 11.8977 18.2273C11.8977 17.6477 11.7358 17.1761 11.4119 16.8125C11.0881 16.4489 10.6619 16.1534 10.1335 15.9261C9.60511 15.6989 9.03409 15.5 8.42045 15.3295L6.27273 14.7159C4.90909 14.3239 3.82955 13.7642 3.03409 13.0369C2.23864 12.3097 1.84091 11.358 1.84091 10.1818C1.84091 9.20454 2.10511 8.35227 2.63352 7.625C3.16761 6.89205 3.88352 6.32386 4.78125 5.92045C5.68466 5.51136 6.69318 5.30682 7.80682 5.30682C8.93182 5.30682 9.93182 5.50852 10.8068 5.91193C11.6818 6.30966 12.375 6.85511 12.8864 7.54829C13.4034 8.24148 13.6761 9.02841 13.7045 9.90909H11.6591ZM32.1456 14.2727C32.1456 16.1136 31.8132 17.7045 31.1484 19.0455C30.4837 20.3864 29.5717 21.4205 28.4126 22.1477C27.2536 22.875 25.9297 23.2386 24.4411 23.2386C22.9524 23.2386 21.6286 22.875 20.4695 22.1477C19.3104 21.4205 18.3984 20.3864 17.7337 19.0455C17.0689 17.7045 16.7365 16.1136 16.7365 14.2727C16.7365 12.4318 17.0689 10.8409 17.7337 9.5C18.3984 8.15909 19.3104 7.125 20.4695 6.39773C21.6286 5.67045 22.9524 5.30682 24.4411 5.30682C25.9297 5.30682 27.2536 5.67045 28.4126 6.39773C29.5717 7.125 30.4837 8.15909 31.1484 9.5C31.8132 10.8409 32.1456 12.4318 32.1456 14.2727ZM30.1001 14.2727C30.1001 12.7614 29.8473 11.4858 29.3416 10.446C28.8416 9.40625 28.1626 8.61932 27.3047 8.08523C26.4524 7.55114 25.4979 7.28409 24.4411 7.28409C23.3842 7.28409 22.4268 7.55114 21.5689 8.08523C20.7166 8.61932 20.0376 9.40625 19.532 10.446C19.032 11.4858 18.782 12.7614 18.782 14.2727C18.782 15.7841 19.032 17.0597 19.532 18.0994C20.0376 19.1392 20.7166 19.9261 21.5689 20.4602C22.4268 20.9943 23.3842 21.2614 24.4411 21.2614C25.4979 21.2614 26.4524 20.9943 27.3047 20.4602C28.1626 19.9261 28.8416 19.1392 29.3416 18.0994C29.8473 17.0597 30.1001 15.7841 30.1001 14.2727ZM35.6996 23V5.54545H41.5973C42.9609 5.54545 44.0803 5.77841 44.9553 6.24432C45.8303 6.70454 46.478 7.33807 46.8984 8.14489C47.3189 8.9517 47.5291 9.86932 47.5291 10.8977C47.5291 11.9261 47.3189 12.8381 46.8984 13.6335C46.478 14.429 45.8331 15.054 44.9638 15.5085C44.0945 15.9574 42.9837 16.1818 41.6314 16.1818H36.8587V14.2727H41.5632C42.495 14.2727 43.245 14.1364 43.8132 13.8636C44.3871 13.5909 44.8018 13.2045 45.0575 12.7045C45.3189 12.1989 45.4496 11.5966 45.4496 10.8977C45.4496 10.1989 45.3189 9.58807 45.0575 9.06534C44.7962 8.54261 44.3786 8.1392 43.8047 7.85511C43.2308 7.56534 42.4723 7.42045 41.5291 7.42045H37.8132V23H35.6996ZM43.9155 15.1591L48.2109 23H45.7564L41.5291 15.1591H43.9155ZM50.0966 7.42045V5.54545H63.1875V7.42045H57.6989V23H55.5852V7.42045H50.0966Z" fill="#402101"/>
<path d="M92.625 10.8751L97.4583 6.04175M97.4583 6.04175L102.292 10.8751M97.4583 6.04175V22.9584M114.375 18.1251L109.542 22.9584M109.542 22.9584L104.708 18.1251M109.542 22.9584V6.04175" stroke="#402101" stroke-width="2" stroke-linecap="round" stroke-linejoin="round"/>
</svg>
